<?xml version="1.0" encoding="UTF-8" standalone="no"?>
<!-- Created with Inkscape (http://www.inkscape.org/) -->

<svg
   width="2732"
   height="2732"
   viewBox="0 0 722.84166 722.84167"
   version="1.1"
   id="svg1"
   inkscape:export-filename="icon2.png"
   inkscape:export-xdpi="96"
   inkscape:export-ydpi="96"
   inkscape:version="1.3.2 (091e20e, 2023-11-25)"
   sodipodi:docname="drawing-1.svg"
   xmlns:inkscape="http://www.inkscape.org/namespaces/inkscape"
   xmlns:sodipodi="http://sodipodi.sourceforge.net/DTD/sodipodi-0.dtd"
   xmlns="http://www.w3.org/2000/svg"
   xmlns:svg="http://www.w3.org/2000/svg">
  <sodipodi:namedview
     id="namedview1"
     pagecolor="#ffffff"
     bordercolor="#000000"
     borderopacity="0.25"
     inkscape:showpageshadow="false"
     inkscape:pageopacity="0.0"
     inkscape:pagecheckerboard="0"
     inkscape:deskcolor="#d1d1d1"
     inkscape:document-units="px"
     inkscape:zoom="0.17988258"
     inkscape:cx="1295.2894"
     inkscape:cy="981.19561"
     inkscape:window-width="1280"
     inkscape:window-height="940"
     inkscape:window-x="0"
     inkscape:window-y="0"
     inkscape:window-maximized="1"
     inkscape:current-layer="layer1" />
  <defs
     id="defs1" />
  <g
     inkscape:label="Layer 1"
     inkscape:groupmode="layer"
     id="layer1">
    <rect
       style="fill:#252a34;fill-opacity:1;stroke:none;stroke-width:6.20063;paint-order:fill markers stroke"
       id="rect1"
       width="722.84167"
       height="722.84167"
       x="1028.136"
       y="267.69778" />
    <g
       id="g1"
       transform="translate(0,-15.291903)">
      <g
         id="g18"
         transform="matrix(0.95845727,0,0,0.95845727,15.01441,-38.600636)">
        <rect
           style="opacity:1;fill:#ff2e63;fill-opacity:1;stroke:none;stroke-width:1.915;stroke-dasharray:none;stroke-opacity:1;paint-order:fill markers stroke"
           id="rect16"
           width="251.6945"
           height="235.05354"
           x="244.41408"
           y="248.57433"
           ry="18.753553" />
        <path
           d="m 514.85694,466.43044 c 0,22.43099 -18.05801,40.48952 -40.489,40.48952 H 248.47372 c -22.43099,0 -40.489,-18.05853 -40.489,-40.48952 v 7.9375 c 0,22.43099 18.05801,40.489 40.489,40.489 h 225.89422 c 22.43099,0 40.489,-18.05801 40.489,-40.489 z"
           style="fill:#9a4157;stroke-width:1.41726;paint-order:fill markers stroke"
           id="path12" />
        <path
           d="m 401.33726,358.86595 c -0.57774,0.0333 -0.90847,0.092 -0.90847,0.092 0,0 -22.96107,1.25576 -22.42292,34.62115 0,0 0.35856,35.51811 24.21661,35.87688 19.9116,0.17938 18.83554,-38.56768 18.83554,-38.56768 0.47088,-31.2352 -15.67657,-32.25532 -19.72076,-32.02233 z"
           style="fill:#ff2e63;stroke-width:1.41726;paint-order:fill markers stroke"
           id="path16" />
        <path
           d="m 286.34066,331.6919 -7.89306,47.178 h 40.18205 l -7.71374,-47.178 z"
           style="fill:#ff2e63;stroke-width:1.41726;paint-order:fill markers stroke"
           id="path15" />
        <path
           d="m 402.65914,207.98472 v -7.9375 H 248.47372 c -22.43099,0 -40.489,18.05801 -40.489,40.489 v 7.9375 c 0,-22.43099 18.05801,-40.489 40.489,-40.489 z"
           style="fill:#ff2e63;stroke-width:1.41726;paint-order:fill markers stroke"
           id="path11" />
        <path
           d="m 473.19385,207.98472 v 92.6021 7.61607 l -38.64932,-31.88539 -31.88539,37.68297 v -7.61659 -98.39916 H 248.47372 c -22.43099,0 -40.489,18.05801 -40.489,40.489 v 217.95672 c 0,22.43099 18.05801,40.48952 40.489,40.48952 h 225.89422 c 22.43099,0 40.489,-18.05853 40.489,-40.48952 V 248.47372 c 0,-22.43099 -18.05801,-40.489 -40.489,-40.489 z M 273.96312,316.0851 h 46.46022 v 0.17932 h 5.20226 l 21.3465,125.38976 h -17.57929 l -7.89305,-45.74295 h -45.92227 l -7.89305,45.74295 h -17.57981 l 21.52633,-125.38976 h 2.33216 z m 86.46294,0 h 17.22066 l -0.17932,49.51015 c 3.22891,-28.70141 61.17017,-35.15906 60.45264,26.01082 0,0 0.71741,37.84972 -17.75912,46.63953 -19.19407,8.96919 -36.77379,-0.53812 -42.87284,-13.99191 v 17.75912 h -16.86202 z"
           style="fill:#ff2e63;stroke-width:1.41726;paint-order:fill markers stroke"
           id="path8" />
        <path
           d="m 473.19385,200.04722 v 7.9375 h 1.17409 c 22.43099,0 40.489,18.05801 40.489,40.489 v -7.9375 c 0,-22.43099 -18.05801,-40.489 -40.489,-40.489 z"
           style="fill:#ff2e63;stroke-width:1.41726;paint-order:fill markers stroke"
           id="path6" />
        <path
           d="m 365.18859,316.0851 v 125.92771 h 16.86202 v -17.75912 c 6.09905,13.45379 23.67877,22.9611 42.87284,13.99191 18.47653,-8.78981 17.75912,-46.63953 17.75912,-46.63953 0.71753,-61.16988 -57.22373,-54.71223 -60.45264,-26.01082 l 0.17932,-49.51015 z m 40.9112,42.78085 c 4.04419,-0.23299 20.19164,0.78713 19.72076,32.02233 0,0 1.07606,38.74706 -18.83554,38.56768 -23.85805,-0.35877 -24.21661,-35.87688 -24.21661,-35.87688 -0.53815,-33.36539 22.42292,-34.62115 22.42292,-34.62115 0,0 0.33073,-0.0587 0.90847,-0.092 z"
           style="font-weight:500;font-size:179.384px;line-height:1.3;font-family:Raleway;-inkscape-font-specification:'Raleway Medium';letter-spacing:0px;word-spacing:0px;opacity:0.516807;fill:#f3f3f3;stroke-width:18.4148;paint-order:fill markers stroke"
           id="path14" />
        <path
           d="m 279.78399,316.0851 v 0.17932 h -2.33216 L 255.9255,441.65418 h 17.57981 l 7.89305,-45.74295 h 45.92227 l 7.89305,45.74295 h 17.57929 l -21.3465,-125.38976 h -5.20226 v -0.17932 z m 12.37754,15.6068 h 24.57525 l 7.71374,47.178 h -40.18205 z"
           style="font-weight:500;font-size:179.384px;line-height:1.3;font-family:Raleway;-inkscape-font-specification:'Raleway Medium';letter-spacing:0px;word-spacing:0px;opacity:0.516807;fill:#f3f3f3;stroke-width:18.4148;paint-order:fill markers stroke"
           id="path13" />
        <text
           xml:space="preserve"
           style="font-weight:500;font-size:179.384px;line-height:1.3;font-family:Raleway;-inkscape-font-specification:'Raleway Medium';letter-spacing:0px;word-spacing:0px;fill:#eaeaea;fill-opacity:1;stroke:#eaeaea;stroke-width:1.915;stroke-dasharray:none;stroke-opacity:1;paint-order:fill markers stroke"
           x="249.28842"
           y="435.83316"
           id="text4"><tspan
             sodipodi:role="line"
             id="tspan4"
             style="font-style:normal;font-variant:normal;font-weight:normal;font-stretch:normal;font-family:'Projekt Blackbird';-inkscape-font-specification:'Projekt Blackbird';fill:#eaeaea;fill-opacity:1;stroke:#eaeaea;stroke-width:1.915;stroke-dasharray:none;stroke-opacity:1"
             x="249.28842"
             y="435.83316">Ab</tspan></text>
        <path
           d="m 473.19385,300.58682 -38.64932,-31.88591 -31.88539,37.68297 v 7.61659 l 31.88539,-37.68297 38.64932,31.88539 z"
           style="opacity:0.731092;fill:#2ac5c1;fill-opacity:0.53271;stroke-width:0.889533;paint-order:fill markers stroke"
           id="path10" />
        <path
           d="m 402.65914,200.04722 v 7.9375 98.39916 l 31.88539,-37.68297 38.64932,31.88591 v -92.6021 -7.9375 z"
           style="opacity:1;fill:#06aba8;stroke-width:0.889533;paint-order:fill markers stroke"
           id="path17" />
      </g>
      <text
         xml:space="preserve"
         style="font-style:normal;font-variant:normal;font-weight:normal;font-stretch:normal;font-size:59.03px;line-height:1.3;font-family:'Projekt Blackbird';-inkscape-font-specification:'Projekt Blackbird';letter-spacing:0px;word-spacing:0px;fill:#eaeaea;fill-opacity:1;stroke:none;stroke-width:10.0136;stroke-dasharray:none;stroke-opacity:1;paint-order:fill markers stroke"
         x="158.64935"
         y="585.70898"
         id="text18"><tspan
           sodipodi:role="line"
           id="tspan18"
           style="fill:#eaeaea;fill-opacity:1;stroke-width:10.0136"
           x="158.64935"
           y="585.70898">MyDictionaryApp</tspan></text>
    </g>
  </g>
</svg>
